<svg width="50" height="65" viewBox="0 0 50 65" fill="none" xmlns="http://www.w3.org/2000/svg">
<g clip-path="url(#clip0_96_16476)">
<path fill-rule="evenodd" clip-rule="evenodd" d="M25.0083 40.1415C23.147 38.7464 21.4028 37.2032 19.7932 35.5271C19.6719 35.3581 19.5897 35.1645 19.5525 34.9602C19.5153 34.7559 19.5241 34.5459 19.5781 34.3453C20.3661 31.3449 20.8729 28.2785 21.0919 25.1852C21.2259 24.6326 21.1203 24.2535 20.7794 24.0599C20.5429 23.8869 20.2869 23.742 20.0164 23.6283C17.2486 22.6199 15.2735 21.9262 14.0911 21.547C7.87359 19.0919 4.6079 17.9572 4.29404 18.1427C4.37673 19.2912 4.54631 20.4319 4.80135 21.5551C4.8665 22.1479 5.0737 22.7166 5.40558 23.2135C5.73747 23.7104 6.18437 24.121 6.70882 24.4108C8.48641 25.4514 10.5467 26.7516 12.8898 28.3112C14.0192 28.9162 15.0463 29.6934 15.9337 30.6143C16.0906 30.7517 16.2184 30.9187 16.3097 31.1057C16.401 31.2927 16.4539 31.4959 16.4653 31.7034C16.5482 32.3081 16.5997 32.9166 16.6195 33.5265C17.2396 44.1633 18.9711 54.7071 21.7859 64.9879C14.1371 53.963 8.38631 43.5579 4.53349 33.7726C1.79269 25.4178 0.287009 19.3622 0.0164459 15.6056C-0.14995 14.3674 0.60492 13.5042 2.26888 13.0363C11.7386 9.54059 19.3143 5.19516 24.9962 0C30.678 5.20054 38.2537 9.54597 47.7234 13.0363C49.3874 13.5042 50.1585 14.3674 49.9759 15.6056C49.7053 19.3703 48.2023 25.4299 45.4669 33.7847C41.6195 43.5753 35.8687 53.9804 28.2145 65C31.0299 54.7195 32.76 44.1755 33.3768 33.5386C33.3768 33.1151 33.4377 32.5101 33.5351 31.7155C33.5447 31.5076 33.5968 31.3038 33.6882 31.1166C33.7796 30.9294 33.9084 30.7626 34.0668 30.6264C34.9541 29.7055 35.9812 28.9283 37.1106 28.3233C39.4537 26.7583 41.5127 25.4582 43.2876 24.4229C43.8132 24.1341 44.2612 23.7239 44.5939 23.2268C44.9266 22.7298 45.1342 22.1606 45.1991 21.5672C45.4581 20.4405 45.629 19.2956 45.7104 18.1427C45.3885 17.9545 42.1228 19.0879 35.9134 21.543C34.7242 21.9463 32.7559 22.6159 29.988 23.6243C29.7226 23.742 29.4709 23.888 29.2372 24.0599C28.8963 24.2535 28.7908 24.6246 28.9247 25.1852C29.1478 28.278 29.6545 31.3441 30.4385 34.3453C30.4935 34.5458 30.5026 34.756 30.4654 34.9604C30.4282 35.1649 30.3455 35.3585 30.2234 35.5271C28.6078 37.2016 26.8598 38.7446 24.9962 40.1415H25.0083Z" fill="#2C3085"/>
</g>
<defs>
<clipPath id="clip0_96_16476">
<rect width="50" height="65" fill="white"/>
</clipPath>
</defs>
</svg>